<svg xmlns="http://www.w3.org/2000/svg" width="162" height="50" viewBox="0 0 162 50">
    <defs>
        <linearGradient id="a" x1="62.365%" x2="36.68%" y1="-3.504%" y2="107.632%">
            <stop offset="0%" stop-color="#FEBE10"/>
            <stop offset="4.82%" stop-color="#F9A41B"/>
            <stop offset="17.15%" stop-color="#F16522"/>
            <stop offset="22.75%" stop-color="#EE4523"/>
            <stop offset="26.89%" stop-color="#D9403D"/>
            <stop offset="34.07%" stop-color="#BA385E"/>
            <stop offset="40.53%" stop-color="#A23173"/>
            <stop offset="46.01%" stop-color="#902C81"/>
            <stop offset="50.3%" stop-color="#852A8A"/>
            <stop offset="52.88%" stop-color="#81298E"/>
            <stop offset="79.47%" stop-color="#2584C6"/>
            <stop offset="100%" stop-color="#02AE4D"/>
        </linearGradient>
    </defs>
    <g fill="none" fill-rule="nonzero">
        <path fill="#323232" d="M148.44 27.658l4.93 11.396 4.612-11.396h4.027l-8.976 22.125h-4.004l2.384-5.93-7.007-16.195h4.033zm-112.968-.175c2.63-.018 4.418 1.426 4.612 2.42v-2.24h4.1V44.31h-4.1v-2.462c-.193.963-1.987 2.691-4.612 2.691-3.486 0-7.808-2.721-7.808-8.543 0-5.695 4.286-8.513 7.808-8.513zm34.22 0c2.624-.018 4.418 1.426 4.612 2.42v-2.24h4.094V44.31h-4.094v-2.462c-.193.963-1.987 2.691-4.612 2.691-3.486 0-7.808-2.721-7.808-8.543 0-5.695 4.286-8.513 7.808-8.513zm36.76-.012c3.547-.006 8.255 2.782 8.255 8.543 0 .512-.03 1.024-.096 1.505h-12.288c.445 2.27 2.498 3.486 4.226 3.486 1.475 0 2.529-.446 3.263-1.246l3.36 1.758c-1.758 2.047-4.257 3.01-6.659 3.01-3.456 0-8.416-2.691-8.416-8.513 0-5.761 4.738-8.543 8.356-8.543zm-52.304 0c2.372-.006 5.285 1.12 6.947 3.835l-3.618 1.313c-.77-1.12-2.047-1.632-3.33-1.632-2.113 0-4.286 1.794-4.286 5.027 0 3.203 2.18 4.991 4.287 4.991 1.282 0 2.558-.512 3.299-1.632l3.678 1.313c-1.698 2.721-4.611 3.84-6.977 3.84-3.426 0-8.387-2.69-8.387-8.512 0-5.858 4.96-8.543 8.387-8.543zm42.365-6.31v23.137h-4.1V41.83c-.229.957-1.992 2.685-4.605 2.685-3.528 0-7.82-2.727-7.82-8.55 0-5.688 4.292-8.512 7.82-8.512 2.522 0 4.243 1.347 4.564 2.329l.03.103v-5.978a10.422 10.422 0 0 0 4.111-2.745zm41.035 6.34c3.39 0 6.689 2.047 6.689 7.712v9.091h-4.13v-9.06c0-2.752-1.535-4.287-3.522-4.287-2.366 0-3.715 1.824-4.256 3.871v9.476h-4.13v-9.06c0-2.752-1.506-4.287-3.583-4.287-2.528 0-3.714 1.698-4.19 3.871v9.476h-4.13V27.658h4.13v3.395c.163-1.15 1.698-3.552 4.991-3.552 2.418 0 4.802.987 6.056 3.517l.12.256c.543-1.473 2.403-3.773 5.955-3.773zM36.116 30.993c-2.143-.006-4.352 1.788-4.352 4.991 0 3.233 2.21 5.027 4.352 5.027 2.083 0 4.16-1.439 4.16-5.027 0-3.648-2.083-4.991-4.16-4.991zm34.22 0c-2.143-.006-4.352 1.788-4.352 4.991 0 3.233 2.21 5.027 4.352 5.027 2.083 0 4.16-1.439 4.16-5.027 0-3.648-2.083-4.991-4.16-4.991zm18.098-.012c-2.137 0-4.353 1.788-4.353 4.985 0 3.233 2.216 5.02 4.353 5.02 2.083 0 4.16-1.432 4.16-5.02 0-3.648-2.083-4.985-4.16-4.985zm18.013.036c-1.788.006-3.612 1.126-4.094 3.426h8.224c-.512-2.306-2.432-3.426-4.13-3.426zM36.05 5.286c2.372-.006 5.286 1.114 6.948 3.835l-3.619 1.312c-.77-1.12-2.046-1.631-3.329-1.631-2.113 0-4.286 1.794-4.286 5.027 0 3.203 2.18 4.99 4.286 4.99 1.283 0 2.559-.51 3.3-1.63l3.678 1.312c-1.698 2.72-4.612 3.84-6.978 3.84-3.425 0-8.386-2.69-8.386-8.512 0-5.858 4.96-8.543 8.386-8.543zm16.177 0c3.456-.006 8.417 2.781 8.417 8.543 0 5.828-4.961 8.513-8.417 8.513-3.456 0-8.416-2.691-8.416-8.513 0-5.762 4.96-8.543 8.416-8.543zm36.116 0c3.546-.006 8.254 2.781 8.254 8.543 0 .512-.03 1.023-.096 1.505H84.213c.446 2.27 2.499 3.486 4.227 3.486 1.475 0 2.528-.446 3.263-1.246l3.36 1.758c-1.759 2.046-4.257 3.01-6.66 3.01-3.455 0-8.416-2.691-8.416-8.513 0-5.762 4.738-8.543 8.356-8.543zM78.403 0v22.113H74.31v-2.462c-.223.963-1.987 2.69-4.612 2.69-3.522 0-7.808-2.72-7.808-8.542 0-5.696 4.286-8.513 7.808-8.513 2.625 0 4.383 1.439 4.612 2.432v-2.24L74.304 0h4.1zM52.228 8.802c-2.053 0-4.323 1.698-4.323 5.027 0 3.3 2.27 4.99 4.323 4.99 2.053 0 4.323-1.697 4.323-4.99 0-3.33-2.27-5.027-4.323-5.027zm18.11 0c-2.144 0-4.353 1.794-4.353 4.99 0 3.234 2.21 5.028 4.352 5.028 2.077 0 4.16-1.44 4.16-5.027 0-3.649-2.083-4.991-4.16-4.991zm17.994.03c-1.788 0-3.612 1.12-4.093 3.426h8.223c-.511-2.306-2.432-3.426-4.13-3.426z"/>
        <path fill="url(#a)" d="M5.533 44.304H0L16.604 5.473h5.533z"/>
    </g>
</svg>
